<svg version="1.1" id="Layer_1" xmlns="http://www.w3.org/2000/svg" xmlns:xlink="http://www.w3.org/1999/xlink" x="0px" y="0px"
	 width="100%" viewBox="0 0 297 297" enable-background="new 0 0 297 297" xml:space="preserve">
<path fill="#010201" opacity="1.000000" stroke="none" 
	d="
M204.000000,298.000000 
	C136.000015,298.000000 68.500023,298.000000 1.000027,298.000000 
	C1.000018,199.000031 1.000018,100.000061 1.000009,1.000067 
	C99.999947,1.000045 198.999893,1.000045 297.999878,1.000022 
	C297.999939,99.999939 297.999939,198.999878 297.999969,297.999908 
	C266.833344,298.000000 235.666672,298.000000 204.000000,298.000000 
M135.442963,185.455368 
	C138.802963,188.874298 138.006134,193.207092 138.035309,197.347244 
	C138.066940,201.837814 137.936142,206.332886 138.105072,210.817368 
	C138.165497,212.421082 137.296890,215.415955 141.887466,214.063385 
	C144.940643,214.109299 147.993820,214.155197 151.550446,214.691727 
	C154.903976,215.281372 154.953079,212.968384 154.964813,210.727509 
	C154.996841,204.616959 155.082809,198.503540 154.933121,192.396515 
	C154.860809,189.445435 155.386566,187.756790 158.922531,187.802628 
	C160.239075,187.819687 162.553360,186.281845 162.722610,185.190826 
	C163.221786,181.973389 162.904114,178.623749 162.783051,175.330368 
	C162.776428,175.150101 161.651566,175.010941 160.368332,174.787674 
	C158.947372,174.710693 157.387833,174.960449 156.155884,174.437866 
	C155.379318,174.108444 155.092896,172.623520 155.398026,171.893005 
	C161.158096,173.720856 162.841125,172.606659 162.967148,166.882156 
	C163.179657,157.228317 163.018875,157.060135 153.485413,157.037079 
	C151.822235,157.033066 150.053223,156.693222 148.527588,157.153336 
	C147.181946,157.559174 146.107941,158.865738 144.399429,160.110825 
	C143.598282,160.739731 142.797150,161.368637 141.291748,162.049805 
	C140.823685,163.692719 140.355621,165.335648 139.939819,167.797958 
	C139.831589,169.156342 139.723373,170.514740 139.052002,172.003098 
	C138.317429,172.838104 137.582870,173.673111 136.291519,175.198532 
	C136.170761,178.472244 136.050003,181.745941 135.442963,185.455368 
M61.520416,194.559464 
	C61.520344,199.720551 61.809776,204.902679 61.436886,210.036682 
	C61.080551,214.942780 62.522610,217.390381 67.762535,216.537384 
	C68.411308,216.431778 69.092163,216.529510 69.758018,216.521698 
	C82.909058,216.367340 81.483208,218.320892 81.517914,204.891388 
	C81.565674,186.411469 81.474747,167.931076 81.568787,149.451508 
	C81.590942,145.099350 80.157494,142.897110 75.441391,143.376678 
	C72.475166,143.678299 69.439232,143.620468 66.460381,143.390121 
	C62.629166,143.093857 61.458157,144.967590 61.503006,148.423065 
	C61.580791,154.415543 61.346310,160.416656 61.581474,166.400818 
	C61.726871,170.100677 60.444714,171.267548 56.723267,171.285858 
	C42.739182,171.354630 42.823322,171.476273 42.717876,157.404663 
	C42.596027,141.144470 45.084068,143.664291 28.183132,143.433472 
	C27.850281,143.428925 27.517210,143.442932 27.184282,143.441055 
	C24.353287,143.425064 22.968456,144.628784 22.978037,147.662003 
	C23.046400,169.305069 22.965120,190.948975 23.168396,212.590378 
	C23.180656,213.895660 25.072977,216.127136 26.347755,216.332764 
	C41.472797,218.772568 42.739788,217.640427 42.739788,202.701279 
	C42.739788,202.534790 42.739788,202.368301 42.739788,202.201813 
	C42.739788,188.403961 42.739113,188.536774 56.821426,188.608505 
	C60.646969,188.627975 61.994633,189.977509 61.520416,194.559464 
M205.813812,210.200500 
	C205.812912,201.542404 205.811691,192.884293 205.811188,184.226196 
	C205.810562,173.445709 205.816208,173.523270 195.174454,174.261337 
	C192.404587,174.453445 191.388565,175.501648 191.441559,178.245789 
	C191.563690,184.570465 191.457169,190.899261 191.485718,197.226196 
	C191.496796,199.680450 191.557037,202.049896 188.067673,202.008408 
	C184.938187,201.971191 183.563202,200.402237 183.589783,197.331314 
	C183.628708,192.836258 183.640381,188.339279 183.554932,183.845184 
	C183.350266,173.082901 185.600479,174.429520 173.544418,174.324966 
	C173.045242,174.320648 172.370361,174.143112 172.078400,174.395096 
	C171.082123,175.254959 169.403107,176.297958 169.433685,177.223175 
	C169.751190,186.825821 169.931305,196.467560 171.028946,205.997147 
	C171.711288,211.921143 175.472000,214.583282 181.401245,214.600754 
	C188.511078,214.621704 195.629578,214.358414 202.724640,213.907974 
	C203.804291,213.839417 204.777603,212.095749 205.813812,210.200500 
M103.396606,185.069824 
	C105.942451,185.261093 108.488304,185.452362 111.034149,185.643631 
	C111.050713,186.427246 111.067276,187.210846 111.083839,187.994446 
	C108.164536,188.389099 105.255257,188.897705 102.323929,189.155807 
	C95.166397,189.786011 90.903160,194.529495 91.126236,201.774460 
	C91.372223,209.762863 95.413986,214.221222 102.632851,214.642914 
	C108.949348,215.011887 115.164993,212.321320 121.602448,214.500458 
	C125.256958,215.737549 127.173538,213.804047 126.928055,209.775681 
	C126.375473,200.707520 126.522179,191.547668 125.188202,182.603531 
	C124.736809,179.577042 121.037277,175.271744 118.208847,174.725311 
	C112.072166,173.539749 105.536804,174.536850 99.170685,174.383240 
	C93.802826,174.253677 94.166016,177.693771 94.092964,181.392517 
	C93.997437,186.229797 97.357574,184.907013 99.953987,185.068695 
	C100.782188,185.120270 101.616554,185.072815 103.396606,185.069824 
M73.170517,115.122803 
	C72.183800,116.723724 71.197075,118.324638 70.222321,119.906143 
	C74.166481,122.743904 92.837425,122.449486 94.810272,120.516716 
	C93.077667,115.867332 91.143791,111.811287 90.053658,107.539909 
	C86.788025,94.744522 83.852242,81.864952 80.810013,69.111740 
	C75.177788,69.111740 70.050293,69.111740 64.163971,69.111740 
	C64.127403,81.175476 69.269157,92.078850 70.596329,103.846985 
	C67.896561,103.846985 65.251610,103.846985 62.319607,103.846985 
	C61.955788,105.476250 61.628345,106.942619 61.208588,108.822388 
	C65.055283,108.822388 68.350121,108.822388 71.901733,108.822388 
	C72.354233,110.801430 72.753883,112.549347 73.170517,115.122803 
M164.610901,103.489868 
	C164.610886,105.487541 164.670197,107.487381 164.597504,109.482407 
	C164.477570,112.774071 165.798813,116.708549 160.861130,117.972046 
	C160.466919,118.072914 159.973282,119.597351 160.235413,120.041145 
	C160.666260,120.770630 161.670883,121.605133 162.446533,121.618042 
	C169.768692,121.739845 177.094818,121.759888 184.416031,121.616508 
	C185.266739,121.599854 186.256638,120.530861 186.845474,119.708733 
	C187.052673,119.419426 186.357620,117.902214 185.893906,117.804703 
	C181.595917,116.900879 182.401642,113.587700 182.397629,110.684883 
	C182.378555,96.892868 182.389114,83.100807 182.389114,69.256546 
	C176.281342,69.256546 170.577774,69.256546 164.610931,69.256546 
	C164.610931,80.551384 164.610931,91.522514 164.610901,103.489868 
M216.124329,207.571930 
	C216.168106,214.027969 216.168091,214.034241 222.711121,214.042969 
	C228.860138,214.051178 235.011734,213.938904 241.157166,214.087585 
	C244.306442,214.163773 245.870316,213.065994 245.672653,209.795822 
	C245.582581,208.305710 245.577103,206.799454 245.681458,205.310913 
	C245.894028,202.278671 244.492722,201.110275 241.535675,201.218887 
	C239.361023,201.298782 237.174255,201.049057 233.633026,200.882111 
	C237.338318,196.552307 239.940903,193.160522 242.909454,190.126816 
	C247.047653,185.897797 245.548660,180.832474 245.296143,175.988754 
	C245.264526,175.382263 243.265717,174.421844 242.163910,174.401291 
	C234.688019,174.261826 227.207138,174.268265 219.730896,174.399185 
	C218.597855,174.419052 216.560440,175.250168 216.508575,175.843094 
	C216.222153,179.117874 215.931976,182.564957 216.752167,185.659012 
	C216.999130,186.590714 220.797546,186.573959 222.966202,187.006073 
	C224.149765,187.241898 225.327286,187.507904 227.682770,188.011612 
	C224.638855,191.535202 222.395020,194.317352 219.951309,196.911209 
	C217.335770,199.687439 215.402161,202.630508 216.124329,207.571930 
M119.880829,112.932701 
	C119.852242,101.112717 119.746231,89.291779 119.893387,77.473976 
	C119.911705,76.002571 121.271950,74.547867 122.010475,73.085457 
	C122.482834,72.150116 123.264381,71.222420 123.287582,70.276108 
	C123.298012,69.850822 121.798531,69.014290 120.974495,69.001762 
	C114.150192,68.898026 107.322830,68.895790 100.498779,69.007828 
	C99.695541,69.021011 98.467422,69.760933 98.237648,70.436531 
	C98.018311,71.081421 98.648247,72.616348 99.246140,72.837547 
	C102.422073,74.012527 102.006485,76.551483 101.999390,79.042892 
	C101.974251,87.866768 101.970337,96.690811 101.994453,105.514694 
	C102.027550,117.626289 111.571274,124.884987 124.972366,121.747414 
	C123.139046,118.828743 121.563622,116.320663 119.880829,112.932701 
M226.346436,73.598557 
	C226.765793,75.652687 227.520645,77.702446 227.547440,79.761681 
	C227.675018,89.561035 227.647751,99.363258 227.580811,109.163811 
	C227.557755,112.537949 228.350235,116.151672 224.661423,118.592209 
	C223.945938,119.065582 224.296219,121.149857 224.143951,122.594826 
	C238.878113,121.671867 247.600235,109.417000 246.382385,92.282898 
	C245.360321,77.903542 235.864426,67.558807 223.465439,68.451370 
	C224.322113,70.174652 225.023697,71.585968 226.346436,73.598557 
M217.900513,114.914986 
	C217.866852,103.762192 217.763672,92.608917 217.842377,81.456917 
	C217.865646,78.158630 216.633652,74.438507 220.556290,72.025230 
	C221.241135,71.603905 220.851532,69.436150 220.963730,68.004082 
	C206.302063,68.733696 198.486542,80.056755 198.993484,98.925804 
	C199.343399,111.949326 208.926376,122.370956 221.948013,122.365051 
	C220.402863,119.755455 219.228683,117.772385 217.900513,114.914986 
M269.821442,208.253754 
	C269.821289,198.429291 269.733398,188.603607 269.872223,178.781097 
	C269.916199,175.669479 269.118286,174.041763 265.689667,174.351974 
	C263.376526,174.561279 260.929413,174.021042 258.739380,174.583588 
	C257.443176,174.916550 255.615021,176.722183 255.588242,177.901123 
	C255.342255,188.719116 255.297363,199.549026 255.611938,210.363297 
	C255.651779,211.732361 257.893372,213.461212 259.495575,214.231110 
	C260.853516,214.883652 262.782318,214.229218 264.423004,214.435547 
	C268.509552,214.949432 270.412079,213.390274 269.821442,208.253754 
M127.907631,117.644508 
	C127.623711,119.243698 127.339790,120.842888 127.012962,122.683746 
	C135.955933,121.153084 140.812546,115.836456 140.969391,107.713081 
	C141.126465,99.577835 141.092346,91.436272 140.984039,83.299591 
	C140.928284,79.110695 141.530197,75.420769 145.466415,72.955551 
	C146.203445,72.493950 146.702713,71.120651 146.669525,70.190987 
	C146.653503,69.742134 145.159927,69.018082 144.312714,68.984123 
	C140.830429,68.844566 137.335678,68.831833 133.854050,68.977264 
	C132.861023,69.018745 131.896866,69.751404 130.919479,70.167114 
	C131.510559,71.205704 132.129974,72.229355 132.687042,73.285866 
	C134.002930,75.781525 136.268494,78.239410 136.408585,80.807549 
	C136.878235,89.418365 136.664200,98.071808 136.554565,106.706932 
	C136.486359,112.079056 134.100922,115.900452 127.907631,117.644508 
M46.733055,121.110214 
	C51.001675,121.324898 55.269070,121.615944 59.540028,121.684143 
	C60.312229,121.696480 61.784702,120.720970 61.742867,120.328468 
	C61.641575,119.378136 61.058178,118.065689 60.278900,117.672455 
	C56.846275,115.940361 56.739777,113.552643 57.829861,110.223526 
	C59.730362,104.419380 61.514030,98.537300 62.729328,92.562317 
	C63.551685,88.519234 63.316784,84.261108 63.554760,80.099167 
	C62.939545,80.026840 62.324333,79.954514 61.709118,79.882187 
	C59.131714,89.202606 56.568615,98.527016 53.970196,107.841576 
	C52.857983,111.828545 51.975925,115.936600 47.393215,117.726578 
	C46.733742,117.984161 46.583637,119.545845 46.733055,121.110214 
M261.718597,172.608490 
	C263.537506,172.597122 265.390137,172.787476 267.161530,172.491653 
	C268.085785,172.337311 269.569153,171.356598 269.596954,170.698288 
	C269.756439,166.924225 270.277313,162.882614 269.090607,159.485428 
	C268.666016,158.269943 263.819000,158.596008 260.989685,158.224579 
	C256.888489,157.686142 255.407104,159.548706 255.387955,163.594788 
	C255.348831,171.849884 255.375137,172.137863 261.718597,172.608490 
M195.016647,87.221802 
	C195.452942,81.240845 195.889236,75.259895 196.329300,69.227097 
	C192.049164,69.227097 188.670074,69.227097 185.094101,69.227097 
	C185.224991,70.868431 185.013809,72.307350 185.490356,73.462570 
	C187.213364,77.639458 189.041092,81.786842 191.126343,85.790665 
	C191.627289,86.752518 193.273148,87.118080 195.016647,87.221802 
M151.059952,76.511978 
	C151.060028,78.332657 150.761261,80.218117 151.138168,81.957123 
	C151.578918,83.990616 152.608826,85.896416 153.383148,87.857605 
	C154.538879,86.146294 155.867355,84.524139 156.807953,82.701775 
	C158.067520,80.261360 159.042419,77.672516 160.109543,75.134789 
	C160.891129,73.276108 161.624405,71.397118 162.482010,69.272469 
	C157.967636,69.272469 154.597977,69.272469 151.059952,69.272469 
	C151.059952,71.601418 151.059952,73.573578 151.059952,76.511978 
z"/>
<path fill="#02E804" opacity="1.000000" stroke="none" 
	d="
M61.521111,194.064484 
	C61.994633,189.977509 60.646969,188.627975 56.821426,188.608505 
	C42.739113,188.536774 42.739788,188.403961 42.739788,202.201813 
	C42.739788,202.368301 42.739788,202.534790 42.739788,202.701279 
	C42.739788,217.640427 41.472797,218.772568 26.347755,216.332764 
	C25.072977,216.127136 23.180656,213.895660 23.168396,212.590378 
	C22.965120,190.948975 23.046400,169.305069 22.978037,147.662003 
	C22.968456,144.628784 24.353287,143.425064 27.184282,143.441055 
	C27.517210,143.442932 27.850281,143.428925 28.183132,143.433472 
	C45.084068,143.664291 42.596027,141.144470 42.717876,157.404663 
	C42.823322,171.476273 42.739182,171.354630 56.723267,171.285858 
	C60.444714,171.267548 61.726871,170.100677 61.581474,166.400818 
	C61.346310,160.416656 61.580791,154.415543 61.503006,148.423065 
	C61.458157,144.967590 62.629166,143.093857 66.460381,143.390121 
	C69.439232,143.620468 72.475166,143.678299 75.441391,143.376678 
	C80.157494,142.897110 81.590942,145.099350 81.568787,149.451508 
	C81.474747,167.931076 81.565674,186.411469 81.517914,204.891388 
	C81.483208,218.320892 82.909058,216.367340 69.758018,216.521698 
	C69.092163,216.529510 68.411308,216.431778 67.762535,216.537384 
	C62.522610,217.390381 61.080551,214.942780 61.436886,210.036682 
	C61.809776,204.902679 61.520344,199.720551 61.521111,194.064484 
z"/>
<path fill="#02E504" opacity="1.000000" stroke="none" 
	d="
M205.806946,210.663696 
	C204.777603,212.095749 203.804291,213.839417 202.724640,213.907974 
	C195.629578,214.358414 188.511078,214.621704 181.401245,214.600754 
	C175.472000,214.583282 171.711288,211.921143 171.028946,205.997147 
	C169.931305,196.467560 169.751190,186.825821 169.433685,177.223175 
	C169.403107,176.297958 171.082123,175.254959 172.078400,174.395096 
	C172.370361,174.143112 173.045242,174.320648 173.544418,174.324966 
	C185.600479,174.429520 183.350266,173.082901 183.554932,183.845184 
	C183.640381,188.339279 183.628708,192.836258 183.589783,197.331314 
	C183.563202,200.402237 184.938187,201.971191 188.067673,202.008408 
	C191.557037,202.049896 191.496796,199.680450 191.485718,197.226196 
	C191.457169,190.899261 191.563690,184.570465 191.441559,178.245789 
	C191.388565,175.501648 192.404587,174.453445 195.174454,174.261337 
	C205.816208,173.523270 205.810562,173.445709 205.811188,184.226196 
	C205.811691,192.884293 205.812912,201.542404 205.806946,210.663696 
z"/>
<path fill="#02E604" opacity="1.000000" stroke="none" 
	d="
M102.922356,185.070251 
	C101.616554,185.072815 100.782188,185.120270 99.953987,185.068695 
	C97.357574,184.907013 93.997437,186.229797 94.092964,181.392517 
	C94.166016,177.693771 93.802826,174.253677 99.170685,174.383240 
	C105.536804,174.536850 112.072166,173.539749 118.208847,174.725311 
	C121.037277,175.271744 124.736809,179.577042 125.188202,182.603531 
	C126.522179,191.547668 126.375473,200.707520 126.928055,209.775681 
	C127.173538,213.804047 125.256958,215.737549 121.602448,214.500458 
	C115.164993,212.321320 108.949348,215.011887 102.632851,214.642914 
	C95.413986,214.221222 91.372223,209.762863 91.126236,201.774460 
	C90.903160,194.529495 95.166397,189.786011 102.323929,189.155807 
	C105.255257,188.897705 108.164536,188.389099 111.083839,187.994446 
	C111.067276,187.210846 111.050713,186.427246 111.034149,185.643631 
	C108.488304,185.452362 105.942451,185.261093 102.922356,185.070251 
M105.565971,202.916092 
	C107.922859,204.414536 110.364662,204.965652 111.659149,201.902359 
	C112.057289,200.960251 110.844444,198.215347 110.145218,198.129929 
	C107.429871,197.798187 104.679344,198.268936 105.565971,202.916092 
z"/>
<path fill="#F8F8F8" opacity="1.000000" stroke="none" 
	d="
M73.162033,114.710030 
	C72.753883,112.549347 72.354233,110.801430 71.901733,108.822388 
	C68.350121,108.822388 65.055283,108.822388 61.208588,108.822388 
	C61.628345,106.942619 61.955788,105.476250 62.319607,103.846985 
	C65.251610,103.846985 67.896561,103.846985 70.596329,103.846985 
	C69.269157,92.078850 64.127403,81.175476 64.163971,69.111740 
	C70.050293,69.111740 75.177788,69.111740 80.810013,69.111740 
	C83.852242,81.864952 86.788025,94.744522 90.053658,107.539909 
	C91.143791,111.811287 93.077667,115.867332 94.810272,120.516716 
	C92.837425,122.449486 74.166481,122.743904 70.222321,119.906143 
	C71.197075,118.324638 72.183800,116.723724 73.162033,114.710030 
z"/>
<path fill="#FCFCFC" opacity="1.000000" stroke="none" 
	d="
M164.610916,102.991760 
	C164.610931,91.522514 164.610931,80.551384 164.610931,69.256546 
	C170.577774,69.256546 176.281342,69.256546 182.389114,69.256546 
	C182.389114,83.100807 182.378555,96.892868 182.397629,110.684883 
	C182.401642,113.587700 181.595917,116.900879 185.893906,117.804703 
	C186.357620,117.902214 187.052673,119.419426 186.845474,119.708733 
	C186.256638,120.530861 185.266739,121.599854 184.416031,121.616508 
	C177.094818,121.759888 169.768692,121.739845 162.446533,121.618042 
	C161.670883,121.605133 160.666260,120.770630 160.235413,120.041145 
	C159.973282,119.597351 160.466919,118.072914 160.861130,117.972046 
	C165.798813,116.708549 164.477570,112.774071 164.597504,109.482407 
	C164.670197,107.487381 164.610886,105.487541 164.610916,102.991760 
z"/>
<path fill="#02E504" opacity="1.000000" stroke="none" 
	d="
M216.124481,207.120483 
	C215.402161,202.630508 217.335770,199.687439 219.951309,196.911209 
	C222.395020,194.317352 224.638855,191.535202 227.682770,188.011612 
	C225.327286,187.507904 224.149765,187.241898 222.966202,187.006073 
	C220.797546,186.573959 216.999130,186.590714 216.752167,185.659012 
	C215.931976,182.564957 216.222153,179.117874 216.508575,175.843094 
	C216.560440,175.250168 218.597855,174.419052 219.730896,174.399185 
	C227.207138,174.268265 234.688019,174.261826 242.163910,174.401291 
	C243.265717,174.421844 245.264526,175.382263 245.296143,175.988754 
	C245.548660,180.832474 247.047653,185.897797 242.909454,190.126816 
	C239.940903,193.160522 237.338318,196.552307 233.633026,200.882111 
	C237.174255,201.049057 239.361023,201.298782 241.535675,201.218887 
	C244.492722,201.110275 245.894028,202.278671 245.681458,205.310913 
	C245.577103,206.799454 245.582581,208.305710 245.672653,209.795822 
	C245.870316,213.065994 244.306442,214.163773 241.157166,214.087585 
	C235.011734,213.938904 228.860138,214.051178 222.711121,214.042969 
	C216.168091,214.034241 216.168106,214.027969 216.124481,207.120483 
z"/>
<path fill="#F9F9F9" opacity="1.000000" stroke="none" 
	d="
M119.934517,113.372635 
	C121.563622,116.320663 123.139046,118.828743 124.972366,121.747414 
	C111.571274,124.884987 102.027550,117.626289 101.994453,105.514694 
	C101.970337,96.690811 101.974251,87.866768 101.999390,79.042892 
	C102.006485,76.551483 102.422073,74.012527 99.246140,72.837547 
	C98.648247,72.616348 98.018311,71.081421 98.237648,70.436531 
	C98.467422,69.760933 99.695541,69.021011 100.498779,69.007828 
	C107.322830,68.895790 114.150192,68.898026 120.974495,69.001762 
	C121.798531,69.014290 123.298012,69.850822 123.287582,70.276108 
	C123.264381,71.222420 122.482834,72.150116 122.010475,73.085457 
	C121.271950,74.547867 119.911705,76.002571 119.893387,77.473976 
	C119.746231,89.291779 119.852242,101.112717 119.934517,113.372635 
z"/>
<path fill="#02E604" opacity="1.000000" stroke="none" 
	d="
M151.046997,214.201111 
	C147.993820,214.155197 144.940643,214.109299 141.286926,213.691498 
	C140.468094,205.729660 140.111923,198.139969 140.097565,190.549637 
	C140.091614,187.401520 139.268127,185.400589 135.929260,185.019653 
	C136.050003,181.745941 136.170761,178.472244 136.915161,174.957764 
	C138.230927,173.769043 138.923050,172.821091 139.615158,171.873123 
	C139.723373,170.514740 139.831589,169.156342 140.189850,167.181885 
	C140.958588,165.043045 141.477295,163.520309 141.996017,161.997559 
	C142.797150,161.368637 143.598282,160.739731 145.074844,159.983704 
	C147.524490,159.549896 149.292801,159.020828 151.073929,158.973434 
	C160.940933,158.710892 162.314087,160.354996 160.289413,169.432327 
	C158.310577,170.204239 156.448578,170.930573 154.586594,171.656906 
	C155.092896,172.623520 155.379318,174.108444 156.155884,174.437866 
	C157.387833,174.960449 158.947372,174.710693 160.704544,175.285736 
	C161.054932,176.613998 161.067490,177.444229 161.083542,178.274414 
	C161.160782,182.265305 162.015671,186.667068 155.477448,186.259857 
	C154.752945,186.214737 153.226425,188.876007 153.153793,190.335953 
	C152.873535,195.968857 153.220337,201.633072 152.937561,207.265747 
	C152.820236,209.603287 151.707214,211.890823 151.046997,214.201111 
z"/>
<path fill="#FAFAFA" opacity="1.000000" stroke="none" 
	d="
M226.035858,73.297920 
	C225.023697,71.585968 224.322113,70.174652 223.465439,68.451370 
	C235.864426,67.558807 245.360321,77.903542 246.382385,92.282898 
	C247.600235,109.417000 238.878113,121.671867 224.143951,122.594826 
	C224.296219,121.149857 223.945938,119.065582 224.661423,118.592209 
	C228.350235,116.151672 227.557755,112.537949 227.580811,109.163811 
	C227.647751,99.363258 227.675018,89.561035 227.547440,79.761681 
	C227.520645,77.702446 226.765793,75.652687 226.035858,73.297920 
z"/>
<path fill="#F7F7F7" opacity="1.000000" stroke="none" 
	d="
M217.977509,115.352158 
	C219.228683,117.772385 220.402863,119.755455 221.948013,122.365051 
	C208.926376,122.370956 199.343399,111.949326 198.993484,98.925804 
	C198.486542,80.056755 206.302063,68.733696 220.963730,68.004082 
	C220.851532,69.436150 221.241135,71.603905 220.556290,72.025230 
	C216.633652,74.438507 217.865646,78.158630 217.842377,81.456917 
	C217.763672,92.608917 217.866852,103.762192 217.977509,115.352158 
z"/>
<path fill="#02E204" opacity="1.000000" stroke="none" 
	d="
M269.820221,208.717590 
	C270.412079,213.390274 268.509552,214.949432 264.423004,214.435547 
	C262.782318,214.229218 260.853516,214.883652 259.495575,214.231110 
	C257.893372,213.461212 255.651779,211.732361 255.611938,210.363297 
	C255.297363,199.549026 255.342255,188.719116 255.588242,177.901123 
	C255.615021,176.722183 257.443176,174.916550 258.739380,174.583588 
	C260.929413,174.021042 263.376526,174.561279 265.689667,174.351974 
	C269.118286,174.041763 269.916199,175.669479 269.872223,178.781097 
	C269.733398,188.603607 269.821289,198.429291 269.820221,208.717590 
z"/>
<path fill="#F5F5F5" opacity="1.000000" stroke="none" 
	d="
M128.240158,117.439728 
	C134.100922,115.900452 136.486359,112.079056 136.554565,106.706932 
	C136.664200,98.071808 136.878235,89.418365 136.408585,80.807549 
	C136.268494,78.239410 134.002930,75.781525 132.687042,73.285866 
	C132.129974,72.229355 131.510559,71.205704 130.919479,70.167114 
	C131.896866,69.751404 132.861023,69.018745 133.854050,68.977264 
	C137.335678,68.831833 140.830429,68.844566 144.312714,68.984123 
	C145.159927,69.018082 146.653503,69.742134 146.669525,70.190987 
	C146.702713,71.120651 146.203445,72.493950 145.466415,72.955551 
	C141.530197,75.420769 140.928284,79.110695 140.984039,83.299591 
	C141.092346,91.436272 141.126465,99.577835 140.969391,107.713081 
	C140.812546,115.836456 135.955933,121.153084 127.012962,122.683746 
	C127.339790,120.842888 127.623711,119.243698 128.240158,117.439728 
z"/>
<path fill="#ECECEC" opacity="1.000000" stroke="none" 
	d="
M46.465431,120.807114 
	C46.583637,119.545845 46.733742,117.984161 47.393215,117.726578 
	C51.975925,115.936600 52.857983,111.828545 53.970196,107.841576 
	C56.568615,98.527016 59.131714,89.202606 61.709118,79.882187 
	C62.324333,79.954514 62.939545,80.026840 63.554760,80.099167 
	C63.316784,84.261108 63.551685,88.519234 62.729328,92.562317 
	C61.514030,98.537300 59.730362,104.419380 57.829861,110.223526 
	C56.739777,113.552643 56.846275,115.940361 60.278900,117.672455 
	C61.058178,118.065689 61.641575,119.378136 61.742867,120.328468 
	C61.784702,120.720970 60.312229,121.696480 59.540028,121.684143 
	C55.269070,121.615944 51.001675,121.324898 46.465431,120.807114 
z"/>
<path fill="#02DA04" opacity="1.000000" stroke="none" 
	d="
M261.283447,172.608688 
	C255.375137,172.137863 255.348831,171.849884 255.387955,163.594788 
	C255.407104,159.548706 256.888489,157.686142 260.989685,158.224579 
	C263.819000,158.596008 268.666016,158.269943 269.090607,159.485428 
	C270.277313,162.882614 269.756439,166.924225 269.596954,170.698288 
	C269.569153,171.356598 268.085785,172.337311 267.161530,172.491653 
	C265.390137,172.787476 263.537506,172.597122 261.283447,172.608688 
z"/>
<path fill="#F0F0F0" opacity="1.000000" stroke="none" 
	d="
M194.704559,87.489838 
	C193.273148,87.118080 191.627289,86.752518 191.126343,85.790665 
	C189.041092,81.786842 187.213364,77.639458 185.490356,73.462570 
	C185.013809,72.307350 185.224991,70.868431 185.094101,69.227097 
	C188.670074,69.227097 192.049164,69.227097 196.329300,69.227097 
	C195.889236,75.259895 195.452942,81.240845 194.704559,87.489838 
z"/>
<path fill="#F3F3F3" opacity="1.000000" stroke="none" 
	d="
M151.059952,76.028854 
	C151.059952,73.573578 151.059952,71.601418 151.059952,69.272469 
	C154.597977,69.272469 157.967636,69.272469 162.482010,69.272469 
	C161.624405,71.397118 160.891129,73.276108 160.109543,75.134789 
	C159.042419,77.672516 158.067520,80.261360 156.807953,82.701775 
	C155.867355,84.524139 154.538879,86.146294 153.383148,87.857605 
	C152.608826,85.896416 151.578918,83.990616 151.138168,81.957123 
	C150.761261,80.218117 151.060028,78.332657 151.059952,76.028854 
z"/>
<path fill="#014403" opacity="1.000000" stroke="none" 
	d="
M151.298721,214.446411 
	C151.707214,211.890823 152.820236,209.603287 152.937561,207.265747 
	C153.220337,201.633072 152.873535,195.968857 153.153793,190.335953 
	C153.226425,188.876007 154.752945,186.214737 155.477448,186.259857 
	C162.015671,186.667068 161.160782,182.265305 161.083542,178.274414 
	C161.067490,177.444229 161.054932,176.613998 161.043976,175.318207 
	C161.651566,175.010941 162.776428,175.150101 162.783051,175.330368 
	C162.904114,178.623749 163.221786,181.973389 162.722610,185.190826 
	C162.553360,186.281845 160.239075,187.819687 158.922531,187.802628 
	C155.386566,187.756790 154.860809,189.445435 154.933121,192.396515 
	C155.082809,198.503540 154.996841,204.616959 154.964813,210.727509 
	C154.953079,212.968384 154.903976,215.281372 151.298721,214.446411 
z"/>
<path fill="#014403" opacity="1.000000" stroke="none" 
	d="
M154.992310,171.774963 
	C156.448578,170.930573 158.310577,170.204239 160.289413,169.432327 
	C162.314087,160.354996 160.940933,158.710892 151.073929,158.973434 
	C149.292801,159.020828 147.524490,159.549896 145.332123,159.815582 
	C146.107941,158.865738 147.181946,157.559174 148.527588,157.153336 
	C150.053223,156.693222 151.822235,157.033066 153.485413,157.037079 
	C163.018875,157.060135 163.179657,157.228317 162.967148,166.882156 
	C162.841125,172.606659 161.158096,173.720856 154.992310,171.774963 
z"/>
<path fill="#014403" opacity="1.000000" stroke="none" 
	d="
M135.686111,185.237518 
	C139.268127,185.400589 140.091614,187.401520 140.097565,190.549637 
	C140.111923,198.139969 140.468094,205.729660 140.830307,213.720459 
	C137.296890,215.415955 138.165497,212.421082 138.105072,210.817368 
	C137.936142,206.332886 138.066940,201.837814 138.035309,197.347244 
	C138.006134,193.207092 138.802963,188.874298 135.686111,185.237518 
z"/>
<path fill="#014403" opacity="1.000000" stroke="none" 
	d="
M141.643890,162.023682 
	C141.477295,163.520309 140.958588,165.043045 140.163727,166.772186 
	C140.355621,165.335648 140.823685,163.692719 141.643890,162.023682 
z"/>
<path fill="#014403" opacity="1.000000" stroke="none" 
	d="
M139.333588,171.938110 
	C138.923050,172.821091 138.230927,173.769043 137.193573,174.612564 
	C137.582870,173.673111 138.317429,172.838104 139.333588,171.938110 
z"/>
<path fill="#023D04" opacity="1.000000" stroke="none" 
	d="
M105.368057,202.565918 
	C104.679344,198.268936 107.429871,197.798187 110.145218,198.129929 
	C110.844444,198.215347 112.057289,200.960251 111.659149,201.902359 
	C110.364662,204.965652 107.922859,204.414536 105.368057,202.565918 
z"/>
</svg>